<svg version="1.2" xmlns="http://www.w3.org/2000/svg" viewBox="0 0 1500 1500" width="1500" height="1500">
	<title>New Project</title>
	<style>
		.s0 { fill: #ffc0cb } 
		.s1 { fill: #ee93a3 } 
		.s2 { fill: #d1546a } 
		.s3 { fill: #da6c7f } 
		.s4 { fill: #ffffff } 
		.s5 { fill: #af6f7b } 
		.s6 { fill: #564649 } 
	</style>
	<path id="piggy" fill-rule="evenodd" class="s0" d="m742.5 1271.3c-335.6-16.8-532.8-225.6-542.8-489.2-10.6-282.5 174.9-536 533.7-545.3 330.7-8.5 547 217.1 545.3 513.2-1.6 299-204 537.8-536.2 521.3z"/>
	<path id="nose" fill-rule="evenodd" class="s1" d="m946.9 1020c-125.5 0-226.9-82.1-226.9-183.8 0-101.6 101.4-183.7 226.9-183.7 125.4 0 226.9 82.1 226.9 183.8 0 101.6-101.5 183.7-226.9 183.7z"/>
	<path id="left nostril" fill-rule="evenodd" class="s2" d="m939.4 912c-9.1 0-16.4-30.2-16.4-67.5 0-37.3 7.3-67.5 16.4-67.5 9.1 0 16.4 30.2 16.4 67.5 0 37.3-7.3 67.5-16.4 67.5z"/>
	<path id="right nostril" fill-rule="evenodd" class="s2" d="m1075.6 912c-9 0-16.4-30.2-16.4-67.5 0-37.3 7.4-67.5 16.4-67.5 9.1 0 16.5 30.2 16.5 67.5 0 37.3-7.4 67.5-16.5 67.5z"/>
	<path id="leg 4" fill-rule="evenodd" class="s1" d="m866.8 1370.5c-11.8-13.7-7.1-85.9-7.1-105.1 57.6-12.3 113.6-27.9 164.3-54 3.6 27.4 6 150.3-1.8 157.2-11.3 8.3-145.6 11.8-155.4 1.9z"/>
	<path id="leg 3" class="s1" d="m655 1261.8c-2 27.7 10.3 95.4 14 99.2 11.3 11.9 51 14 81 14 30 0 73.3 0 82.6-6.2 5.6-3.7-3.6-84.1-1.5-99.5-11.2 0.5-54 2.4-92.2 1.8-24.7-0.4-81.9-8.3-83.9-9.3z"/>
	<path id="leg 2" class="s3" d="m603.3 1251.5c0 0-1.8 51.7 6.7 66.5 2.9 5.2 52.3 7.2 52.3 7.2 0 0-3.3-18.8-4-30.4-0.6-9.9 0.2-32.1 0.2-32.1 0 0-24.2-4.9-27.7-5.5-8.1-1.4-27.5-5.7-27.5-5.7z"/>
	<path id="leg 1" class="s1" d="m410.8 1167.5c0 0 1.6 138.2 11.2 145.5 16.6 12.6 55.3 22.1 89.8 23.3 22.4 0.8 62.2-1 74.4-8.4 7.8-4.8 1-81 1-81 0 0-48.4-11.7-89.7-31.4-27.1-12.9-86.7-48-86.7-48z"/>
	<path id="tail 1" class="s1" d="m238.9 549.6l15.3-33.9c0 0-44.2-17.1-54-88.9 33.4 3.9 48.1-11.3 68.3-33.4 12.8-14 22.2-54.1 1.5-72.8-21-19.1-83.6 5.9-100.3 53.1-18.7-4.9-13.1-77 2.1-122.6 0.5-0.1-76.9 77.3-5.1 162.9 3.5 5.7 1.9 46.9 15.8 74.8 17.3 34.8 50.7 59.6 56.4 60.8z"/>
	<path id="tail 2" fill-rule="evenodd" class="s4" d="m196.5 399.2c-16.2-28.6 33.2-74.2 60.8-59.4 16.2 20-26.5 74.6-60.8 59.4z"/>
	<path id="hole" fill-rule="evenodd" class="s5" d="m884.6 412.8c-6.3 4.5-51.3-150.3-146.6-174.2 30.8-2.8 81.6 1.6 96.8 4.5 8.3 0 34.6 24.4 58.8 57.8 31.8 43.8 57.5 99.9 51.3 106-8.4-0.3-13 1-26.1 1-10.9-0.1-24.2 3.4-34.2 4.9z"/>
	<path id="left eye" class="s6" d="m691.4 626.9c0 0 29.8-46.7 66.4-48.8 30-1.7 73 27.4 73 27.4 0.5 0.5 2.1 23.6-0.6 27.6-9-1.3-39.7-36.6-71.8-33.7-30.9 2.7-58.8 41.8-55.7 37.7z"/>
	<path id="right eye" class="s6" d="m1183.6 633.9c0 0-21.2-44.4-53.2-50.2-26.1-4.7-67.1 16.2-67.1 16.2-0.4 0.3-4.4 20.5-2.4 24.3 8-0.1 38.9-27.9 66.7-21.9 26.9 5.8 47.2 43.2 45 39.2z"/>
	<path id="right ear" fill-rule="evenodd" class="s1" d="m1220.4 501.1c-5.8-12.1-39-67.1-56.8-86.2-0.6-7.4 137.5-45.4 150.1-12.2 30 79.2-48.5 236-49.2 219.4-0.8-18.2-37.4-107-44.1-121z"/>
	<path id="left ear" fill-rule="evenodd" class="s1" d="m506.2 634.9c-56-34.8-87-215.5-59.7-240.9 29.2-27.2 236.8 25.5 237.3 60.5 0.4 22.3-54 51.2-95 84.9-29.5 24.2-68.4 104.3-82.6 95.5z"/>
</svg>